<svg xmlns="http://www.w3.org/2000/svg" viewBox="0 0 49.51 43.13"><defs><style>.cls-1{fill:none;stroke:#44494e;stroke-linecap:round;stroke-linejoin:round;stroke-width:4px;}.cls-2{fill:#44494e;}</style></defs><title>Asset 6</title><g id="Layer_2" data-name="Layer 2"><g id="Layer_1-2" data-name="Layer 1"><g id="message_icon" data-name="message icon"><path class="cls-1" d="M16.09,32.32h-13C2.49,32.32,2,31.5,2,30.94V2.34c0-.56.49-.26,1.08-.26H46.43c.6,0,1.08-.3,1.08.26v28.6c0,.56-.48,1.38-1.08,1.38H31.26"/><line class="cls-1" x1="23.67" y1="41.13" x2="30.85" y2="32.96"/><line class="cls-1" x1="23.67" y1="41.13" x2="16.49" y2="32.96"/><path class="cls-2" d="M13.92,15.14a2.19,2.19,0,0,0-2.33,2,2.19,2.19,0,0,0,2.33,2,2.19,2.19,0,0,0,2.33-2,2.19,2.19,0,0,0-2.33-2"/><path class="cls-2" d="M24.76,15.14a2.19,2.19,0,0,0-2.33,2,2.19,2.19,0,0,0,2.33,2,2.19,2.19,0,0,0,2.33-2,2.19,2.19,0,0,0-2.33-2"/><path class="cls-2" d="M35.59,15.14a2.19,2.19,0,0,0-2.33,2,2.36,2.36,0,0,0,4.66,0,2.19,2.19,0,0,0-2.33-2"/></g></g></g></svg>