<svg xmlns="http://www.w3.org/2000/svg" viewBox="0 0 38.68 46.33"><defs><style>.cls-1{fill:none;stroke:#44494e;stroke-linecap:round;stroke-linejoin:round;stroke-width:4px;}</style></defs><title>Asset 3</title><g id="Layer_2" data-name="Layer 2"><g id="Layer_1-2" data-name="Layer 1"><path class="cls-1" d="M19.34,2c9.57,0,17.34,7.05,17.34,15.75a14.73,14.73,0,0,1-3.44,9.41"/><path class="cls-1" d="M24.76,17.75a5.24,5.24,0,0,1-5.42,5,5.24,5.24,0,0,1-5.42-5,5.24,5.24,0,0,1,5.42-5A5.24,5.24,0,0,1,24.76,17.75Z"/><line class="cls-1" x1="19.34" y1="44.33" x2="33.24" y2="27.16"/><path class="cls-1" d="M19.34,2C9.76,2,2,9.05,2,17.75a14.78,14.78,0,0,0,3.43,9.41"/><line class="cls-1" x1="19.34" y1="44.33" x2="5.43" y2="27.16"/></g></g></svg>